<svg xmlns="http://www.w3.org/2000/svg" width="159.187" height="49.746" viewBox="0 0 159.187 49.746">
    <g id="app-store-badge" transform="translate(0)">
      <path id="Path_238" data-name="Path 238" d="M198.413,68.746H49.175A4.989,4.989,0,0,1,44.2,63.771v-39.8A4.989,4.989,0,0,1,49.175,19H198.413a4.989,4.989,0,0,1,4.975,4.975v39.8A4.989,4.989,0,0,1,198.413,68.746Z" transform="translate(-44.2 -19)" fill="#152245"/>
      <path id="Path_239" data-name="Path 239" d="M75.283,40.559a7.211,7.211,0,0,1,3.358-5.845,7.749,7.749,0,0,0-5.6-3.109c-2.363-.249-4.726,1.368-5.845,1.368-1.244,0-3.109-1.368-5.1-1.368a7.389,7.389,0,0,0-6.343,3.855c-2.736,4.726-.746,11.69,1.865,15.546,1.368,1.865,2.86,3.98,4.85,3.855s2.736-1.244,5.1-1.244,2.985,1.244,5.1,1.244S76.153,53,77.4,51.13a14.255,14.255,0,0,0,2.114-4.353A6.877,6.877,0,0,1,75.283,40.559Z" transform="translate(-41.704 -15.935)" fill="#fff"/>
      <path id="Path_240" data-name="Path 240" d="M68.986,30.575A7.712,7.712,0,0,0,70.6,25.6a6.66,6.66,0,0,0-4.477,2.363,6.289,6.289,0,0,0-1.617,4.726A5.907,5.907,0,0,0,68.986,30.575Z" transform="translate(-39.262 -17.392)" fill="#fff"/>
      <path id="Path_241" data-name="Path 241" d="M96.631,53.243H93.9L92.4,48.517H87.18l-1.368,4.726H83.2L88.423,37.2h3.233Zm-4.726-6.716L90.538,42.3c-.124-.373-.373-1.492-.871-2.985h0c-.124.622-.373,1.741-.746,2.985l-1.368,4.228Z" transform="translate(-34.698 -14.566)" fill="#fff"/>
      <path id="Path_242" data-name="Path 242" d="M106.893,46.545a6.622,6.622,0,0,1-1.617,4.726,4.784,4.784,0,0,1-3.607,1.492,3.385,3.385,0,0,1-3.233-1.617h0v6.094H95.824V44.8c0-1.244,0-2.487-.124-3.855h2.239l.124,1.865h0a4.285,4.285,0,0,1,3.855-2.114,4.011,4.011,0,0,1,3.358,1.617A5.269,5.269,0,0,1,106.893,46.545Zm-2.612,0a4.468,4.468,0,0,0-.746-2.736A2.511,2.511,0,0,0,101.3,42.69a2.971,2.971,0,0,0-1.741.622,2.765,2.765,0,0,0-.995,1.617,2.188,2.188,0,0,0-.124.746v1.99a3.138,3.138,0,0,0,.746,2.114,2.474,2.474,0,0,0,1.99.871,2.511,2.511,0,0,0,2.239-1.119A4.493,4.493,0,0,0,104.281,46.545Z" transform="translate(-31.652 -13.713)" fill="#fff"/>
      <path id="Path_243" data-name="Path 243" d="M117.593,46.545a6.622,6.622,0,0,1-1.617,4.726,4.784,4.784,0,0,1-3.607,1.492,3.385,3.385,0,0,1-3.233-1.617h0v6.094h-2.612V44.8c0-1.244,0-2.487-.124-3.855h2.239l.124,1.865h0a4.285,4.285,0,0,1,3.855-2.114,4.011,4.011,0,0,1,3.358,1.617A5.269,5.269,0,0,1,117.593,46.545Zm-2.612,0a4.468,4.468,0,0,0-.746-2.736A2.511,2.511,0,0,0,112,42.69a2.972,2.972,0,0,0-1.741.622,2.765,2.765,0,0,0-.995,1.617,2.188,2.188,0,0,0-.124.746v1.99a3.138,3.138,0,0,0,.746,2.114,2.475,2.475,0,0,0,1.99.871,2.511,2.511,0,0,0,2.239-1.119A4.493,4.493,0,0,0,114.981,46.545Z" transform="translate(-29.045 -13.713)" fill="#fff"/>
      <path id="Path_244" data-name="Path 244" d="M129.325,48.79a4.592,4.592,0,0,1-1.368,3.358,5.921,5.921,0,0,1-4.353,1.368,7.689,7.689,0,0,1-4.1-.995l.622-2.114a7.6,7.6,0,0,0,3.731.995,3.693,3.693,0,0,0,2.239-.622,2.258,2.258,0,0,0,.746-1.741,2.364,2.364,0,0,0-.622-1.617,6.232,6.232,0,0,0-2.239-1.244c-2.86-.995-4.228-2.612-4.228-4.6a4.011,4.011,0,0,1,1.492-3.233,5.664,5.664,0,0,1,3.98-1.244,7.755,7.755,0,0,1,3.607.746l-.622,2.114a6.058,6.058,0,0,0-3.109-.746,3.557,3.557,0,0,0-2.114.622,2.06,2.06,0,0,0-.622,1.492,2.189,2.189,0,0,0,.746,1.617,9.649,9.649,0,0,0,2.363,1.244,8.39,8.39,0,0,1,3.109,1.99A5.005,5.005,0,0,1,129.325,48.79Z" transform="translate(-25.853 -14.59)" fill="#fff"/>
      <path id="Path_245" data-name="Path 245" d="M135.589,43.35h-2.86v5.6c0,1.368.5,2.114,1.492,2.114a2.76,2.76,0,0,0,1.119-.124l.124,1.99a4.557,4.557,0,0,1-1.99.249,2.925,2.925,0,0,1-2.363-.871,4.231,4.231,0,0,1-.871-3.109V43.35H128.5V41.36h1.741V39.246l2.487-.746v2.86h2.86Z" transform="translate(-23.66 -14.249)" fill="#fff"/>
      <path id="Path_246" data-name="Path 246" d="M146.717,46.57a6.379,6.379,0,0,1-1.492,4.353A5.717,5.717,0,0,1,141,52.663a5.252,5.252,0,0,1-4.1-1.741,6.057,6.057,0,0,1-1.492-4.228,5.91,5.91,0,0,1,1.617-4.353,5.523,5.523,0,0,1,4.228-1.741,5.252,5.252,0,0,1,4.1,1.741A6.63,6.63,0,0,1,146.717,46.57Zm-2.736.124a4.729,4.729,0,0,0-.746-2.736,2.725,2.725,0,0,0-4.726,0,5.014,5.014,0,0,0-.746,2.736,4.73,4.73,0,0,0,.746,2.736,2.666,2.666,0,0,0,2.363,1.368,2.817,2.817,0,0,0,2.363-1.368A5.014,5.014,0,0,0,143.981,46.694Z" transform="translate(-21.979 -13.737)" fill="#fff"/>
      <path id="Path_247" data-name="Path 247" d="M152.443,43.112c-.249,0-.5-.124-.871-.124a2.656,2.656,0,0,0-2.114.995,4.294,4.294,0,0,0-.622,2.239v6.094h-2.612V44.355a32.615,32.615,0,0,0-.124-3.607h2.239l.124,2.239h.124a4.92,4.92,0,0,1,1.244-1.865A3.7,3.7,0,0,1,151.7,40.5h.622v2.612Z" transform="translate(-19.372 -13.762)" fill="#fff"/>
      <path id="Path_248" data-name="Path 248" d="M162.422,46.072a2.761,2.761,0,0,1-.124,1.119h-7.711a3.212,3.212,0,0,0,1.119,2.612,4.006,4.006,0,0,0,2.487.871,8.166,8.166,0,0,0,3.109-.5l.373,1.741a9.271,9.271,0,0,1-3.855.746,5.441,5.441,0,0,1-4.228-1.617,5.851,5.851,0,0,1-1.492-4.228,7,7,0,0,1,1.368-4.353,4.968,4.968,0,0,1,4.1-1.865,4.139,4.139,0,0,1,3.731,1.865A5.221,5.221,0,0,1,162.422,46.072Zm-2.363-.622a3.649,3.649,0,0,0-.5-1.99,2.241,2.241,0,0,0-1.99-1.119,2.417,2.417,0,0,0-1.99.995,4.749,4.749,0,0,0-.746,1.99h5.223Z" transform="translate(-17.91 -13.737)" fill="#fff"/>
      <path id="Path_249" data-name="Path 249" d="M90.867,30.031a4.045,4.045,0,0,1-1.244,3.233,5.147,5.147,0,0,1-3.358.995,8.235,8.235,0,0,1-1.865-.124V26.424a12.091,12.091,0,0,1,2.239-.124,4.635,4.635,0,0,1,3.109.871A4.028,4.028,0,0,1,90.867,30.031Zm-1.368,0a2.6,2.6,0,0,0-2.86-2.86,2.424,2.424,0,0,0-.995.124V33.14h.871a3.04,3.04,0,0,0,2.239-.746A3.367,3.367,0,0,0,89.5,30.031Z" transform="translate(-34.405 -17.221)" fill="#fff"/>
      <path id="Path_250" data-name="Path 250" d="M96.3,30.885A2.925,2.925,0,0,1,95.55,33a2.562,2.562,0,0,1-2.114.871A2.319,2.319,0,0,1,91.446,33a2.925,2.925,0,0,1-.746-2.114,2.925,2.925,0,0,1,.746-2.114A2.562,2.562,0,0,1,93.56,27.9a2.319,2.319,0,0,1,1.99.871A2.925,2.925,0,0,1,96.3,30.885Zm-1.244,0a2.507,2.507,0,0,0-.373-1.368,1.088,1.088,0,0,0-1.119-.622,1.306,1.306,0,0,0-1.119.622,2.695,2.695,0,0,0,0,2.736,1.088,1.088,0,0,0,1.119.622,1.2,1.2,0,0,0,1.119-.746A1.857,1.857,0,0,0,95.053,30.885Z" transform="translate(-32.87 -16.832)" fill="#fff"/>
      <path id="Path_251" data-name="Path 251" d="M104.532,28l-1.741,5.721h-1.119l-.746-2.487a10.361,10.361,0,0,1-.5-1.865h0a10.358,10.358,0,0,1-.5,1.865l-.746,2.487H98.065L96.2,28h1.244l.622,2.736.373,1.865h0c.124-.5.249-1.119.5-1.865L99.682,28h.995l.746,2.612a10.36,10.36,0,0,1,.5,1.865h0l.373-1.865L103.04,28Z" transform="translate(-31.53 -16.807)" fill="#fff"/>
      <path id="Path_252" data-name="Path 252" d="M109.05,33.77h-1.244V30.536q0-1.492-1.119-1.492a1.129,1.129,0,0,0-.871.373,1.412,1.412,0,0,0-.373.995V33.77H104.2V28.049h1.119v.871h0a3.3,3.3,0,0,1,.622-.746,2.006,2.006,0,0,1,1.119-.373,1.87,1.87,0,0,1,1.368.5,2.14,2.14,0,0,1,.622,1.865Z" transform="translate(-29.581 -16.856)" fill="#fff"/>
      <path id="Path_253" data-name="Path 253" d="M111.144,34.232H109.9V25.9h1.244Z" transform="translate(-28.192 -17.319)" fill="#fff"/>
      <path id="Path_254" data-name="Path 254" d="M118,30.885A2.925,2.925,0,0,1,117.25,33a2.562,2.562,0,0,1-2.114.871,2.319,2.319,0,0,1-1.99-.871,2.925,2.925,0,0,1-.746-2.114,2.925,2.925,0,0,1,.746-2.114,3,3,0,0,1,2.114-.871,2.319,2.319,0,0,1,1.99.871A2.925,2.925,0,0,1,118,30.885Zm-1.244,0a2.507,2.507,0,0,0-.373-1.368,1.088,1.088,0,0,0-1.119-.622,1.306,1.306,0,0,0-1.119.622,2.695,2.695,0,0,0,0,2.736,1.088,1.088,0,0,0,1.119.622,1.2,1.2,0,0,0,1.119-.746A1.857,1.857,0,0,0,116.753,30.885Z" transform="translate(-27.583 -16.832)" fill="#fff"/>
      <path id="Path_255" data-name="Path 255" d="M122.7,33.745h-1.119l-.124-.622h0a2.005,2.005,0,0,1-1.617.746,1.442,1.442,0,0,1-1.244-.5,2.235,2.235,0,0,1-.5-1.119,1.687,1.687,0,0,1,.871-1.617,4.648,4.648,0,0,1,2.487-.5v-.124a.989.989,0,0,0-1.119-1.119,2.954,2.954,0,0,0-1.492.373L118.6,28.4a3.155,3.155,0,0,1,1.99-.5c1.492,0,2.239.746,2.239,2.363v2.114A6.1,6.1,0,0,0,122.7,33.745Zm-1.244-1.99v-.871c-1.368,0-2.114.373-2.114,1.119a.85.85,0,0,0,.871.871,1.768,1.768,0,0,0,.746-.249,1.242,1.242,0,0,0,.5-.622Z" transform="translate(-26.194 -16.832)" fill="#fff"/>
      <path id="Path_256" data-name="Path 256" d="M128.648,34.208h-1.119v-.871h0a1.835,1.835,0,0,1-1.865.995,2.258,2.258,0,0,1-1.741-.746,2.874,2.874,0,0,1-.622-2.114,3.472,3.472,0,0,1,.746-2.239,2.455,2.455,0,0,1,1.741-.746,1.848,1.848,0,0,1,1.617.746h0V26h1.244v8.208ZM127.4,31.845V30.477a2.6,2.6,0,0,0-.5-.746,1.049,1.049,0,0,0-.871-.249,1.306,1.306,0,0,0-1.119.622,2.652,2.652,0,0,0-.373,1.492,2.234,2.234,0,0,0,.373,1.368,1.306,1.306,0,0,0,1.119.622,1.131,1.131,0,0,0,.995-.5A2.78,2.78,0,0,0,127.4,31.845Z" transform="translate(-24.927 -17.294)" fill="#fff"/>
      <path id="Path_257" data-name="Path 257" d="M137.4,30.885A2.925,2.925,0,0,1,136.65,33a2.562,2.562,0,0,1-2.114.871,2.319,2.319,0,0,1-1.99-.871,2.925,2.925,0,0,1-.746-2.114,2.925,2.925,0,0,1,.746-2.114,2.562,2.562,0,0,1,2.114-.871,2.319,2.319,0,0,1,1.99.871A2.925,2.925,0,0,1,137.4,30.885Zm-1.368,0a2.507,2.507,0,0,0-.373-1.368,1.088,1.088,0,0,0-1.119-.622,1.306,1.306,0,0,0-1.119.622,2.694,2.694,0,0,0,0,2.736,1.088,1.088,0,0,0,1.119.622,1.2,1.2,0,0,0,1.119-.746A1.857,1.857,0,0,0,136.028,30.885Z" transform="translate(-22.856 -16.832)" fill="#fff"/>
      <path id="Path_258" data-name="Path 258" d="M142.75,33.77h-1.244V30.536q0-1.492-1.119-1.492a1.129,1.129,0,0,0-.871.373,1.412,1.412,0,0,0-.373.995V33.77H137.9V28.049h1.119v.871h0a3.3,3.3,0,0,1,.622-.746,2.006,2.006,0,0,1,1.119-.373,1.87,1.87,0,0,1,1.368.5,2.14,2.14,0,0,1,.622,1.865Z" transform="translate(-21.37 -16.856)" fill="#fff"/>
      <path id="Path_259" data-name="Path 259" d="M149.258,29.263H147.89V32c0,.746.249.995.746.995h.622v.995a2.424,2.424,0,0,1-.995.124,1.212,1.212,0,0,1-1.119-.5,2.391,2.391,0,0,1-.373-1.492v-2.86H145.9v-.995h.871v-.995l1.244-.373v1.368h1.368v.995Z" transform="translate(-19.421 -17.075)" fill="#fff"/>
      <path id="Path_260" data-name="Path 260" d="M154.95,34.232h-1.244V31q0-1.492-1.119-1.492a1.2,1.2,0,0,0-1.244.871v3.855H150.1V25.9h1.244v3.482h0a1.985,1.985,0,0,1,1.741-.995,1.442,1.442,0,0,1,1.244.5,2.8,2.8,0,0,1,.622,1.865Z" transform="translate(-18.397 -17.319)" fill="#fff"/>
      <path id="Path_261" data-name="Path 261" d="M160.475,30.612v.622h-3.731a1.658,1.658,0,0,0,.5,1.244,2.1,2.1,0,0,0,1.244.373,4.638,4.638,0,0,0,1.492-.249l.249.871a4.153,4.153,0,0,1-1.865.373,3,3,0,0,1-2.114-4.975,2.319,2.319,0,0,1,1.99-.871,1.963,1.963,0,0,1,1.865.871A3.294,3.294,0,0,1,160.475,30.612Zm-1.119-.373a2.343,2.343,0,0,0-.249-.995,1.009,1.009,0,0,0-.995-.5,1.131,1.131,0,0,0-.995.5,1.412,1.412,0,0,0-.373.995Z" transform="translate(-17.082 -16.807)" fill="#fff"/>
    </g>
</svg>
