<svg id="XMLID_7_" xmlns="http://www.w3.org/2000/svg" width="25.007" height="25.564" viewBox="0 0 25.007 25.564">
  <path id="XMLID_8_" d="M174.512,48.82a8.006,8.006,0,0,0-7.087-7.628c-.078-.009-.164-.023-.254-.038a3.685,3.685,0,0,0-.6-.066,1.009,1.009,0,0,0-1.08.905,1.046,1.046,0,0,0,.156.821,1.551,1.551,0,0,0,1.116.48c.111.015.215.03.3.049,3.54.791,4.731,2.034,5.314,5.544.014.086.021.191.027.3.025.42.078,1.292,1.017,1.292h0a1.667,1.667,0,0,0,.249-.02c.874-.133.846-.931.833-1.314a1.949,1.949,0,0,1,0-.278A.371.371,0,0,0,174.512,48.82Z" transform="translate(-153.123 -37.71)" fill="#0075bf"/>
  <path id="XMLID_9_" d="M161.725,2.112c.1.008.2.015.287.027,5.812.894,8.486,3.648,9.226,9.506a3.437,3.437,0,0,1,.017.35c.007.458.023,1.41,1.045,1.429h.032a1,1,0,0,0,.758-.288,1.6,1.6,0,0,0,.278-1.225c0-.1-.009-.189-.007-.27A11.846,11.846,0,0,0,162.263.017a.415.415,0,0,0-.072,0,.5.5,0,0,1-.071,0c-.06,0-.133-.005-.211-.01-.094-.006-.2-.014-.309-.014a1.052,1.052,0,0,0-1.158,1.081C160.388,2.015,161.291,2.081,161.725,2.112Z" transform="translate(-148.507 0)" fill="#0075bf"/>
  <path id="XMLID_10_" d="M27.583,33.924c-.124-.094-.251-.192-.371-.288-.635-.511-1.31-.981-1.963-1.437l-.406-.284a4.052,4.052,0,0,0-2.3-.873,2.979,2.979,0,0,0-2.48,1.571,1.318,1.318,0,0,1-1.131.687,2.246,2.246,0,0,1-.911-.229,10.965,10.965,0,0,1-5.73-5.579c-.533-1.2-.36-1.98.578-2.617a2.649,2.649,0,0,0,1.454-2.323c-.08-1.463-3.308-5.866-4.669-6.367a2.65,2.65,0,0,0-1.8,0,5.216,5.216,0,0,0-3.246,2.67,4.963,4.963,0,0,0,.071,4.006,32.317,32.317,0,0,0,7.092,10.8A34.375,34.375,0,0,0,22.528,40.8a5.958,5.958,0,0,0,1.064.316c.1.022.184.041.246.058a.414.414,0,0,0,.1.015h.033a6.1,6.1,0,0,0,5.068-3.857C29.681,35.528,28.517,34.639,27.583,33.924Z" transform="translate(-4.219 -15.621)" fill="#0075bf"/>
  <path id="XMLID_11_" d="M171.458,83.556a1.224,1.224,0,0,0-1.287.742.994.994,0,0,0,.041.863,1.292,1.292,0,0,0,.975.516,2.3,2.3,0,0,1,2.138,2.3,1.09,1.09,0,0,0,1.037,1.076h0a1.023,1.023,0,0,0,.123-.007c.659-.078.978-.562.949-1.438a4.107,4.107,0,0,0-1.281-2.778A3.824,3.824,0,0,0,171.458,83.556Z" transform="translate(-157.368 -76.685)" fill="#0075bf"/>
</svg>
