<svg id="couple" xmlns="http://www.w3.org/2000/svg" width="104.896" height="95.479" viewBox="0 0 104.896 95.479">
  <g id="Group_224" data-name="Group 224" transform="translate(14.614 0)">
    <g id="Group_223" data-name="Group 223">
      <path id="Path_219" data-name="Path 219" d="M90.835,22.984a19.5,19.5,0,1,0,19.5,19.5A19.526,19.526,0,0,0,90.835,22.984Zm0,32.861a13.358,13.358,0,1,1,13.358-13.358A13.373,13.373,0,0,1,90.835,55.845Z" transform="translate(-71.331 -22.984)" fill="#fff"/>
    </g>
  </g>
  <g id="Group_226" data-name="Group 226" transform="translate(0 42.451)">
    <g id="Group_225" data-name="Group 225">
      <path id="Path_220" data-name="Path 220" d="M89.531,241.061h-23.1a15.4,15.4,0,0,0-2.02.137,24,24,0,0,0-20.174-11.011H24a24.03,24.03,0,0,0-24,24v25.952a3.073,3.073,0,0,0,3.073,3.073h98.75a3.073,3.073,0,0,0,3.073-3.073V256.427A15.383,15.383,0,0,0,89.531,241.061ZM51.062,256.427v20.642H6.146V254.19A17.877,17.877,0,0,1,24,236.333h20.23a17.837,17.837,0,0,1,14.166,7A15.369,15.369,0,0,0,51.062,256.427ZM98.75,277.069H57.208V256.427a9.23,9.23,0,0,1,9.219-9.219h23.1a9.23,9.23,0,0,1,9.219,9.219Z" transform="translate(0 -230.187)" fill="#fff"/>
    </g>
  </g>
  <g id="Group_228" data-name="Group 228" transform="translate(62.286 17.749)">
    <g id="Group_227" data-name="Group 227">
      <path id="Path_221" data-name="Path 221" d="M319.712,109.619a15.693,15.693,0,1,0,15.693,15.693A15.711,15.711,0,0,0,319.712,109.619Zm0,25.24a9.547,9.547,0,1,1,9.547-9.547A9.558,9.558,0,0,1,319.712,134.859Z" transform="translate(-304.019 -109.619)" fill="#fff"/>
    </g>
  </g>
</svg>
