<svg xmlns="http://www.w3.org/2000/svg" width="82.558" height="96.069" viewBox="0 0 82.558 96.069">
  <g id="_22-mobile" data-name="22-mobile" transform="translate(0.5 0.5)">
    <g id="linear_color" data-name="linear color" transform="translate(0 0)">
      <path id="Path_222" data-name="Path 222" d="M240.677,446.021h-9.689a1.9,1.9,0,1,0,0,3.8h9.689a1.9,1.9,0,0,0,0-3.8Z" transform="translate(-194.096 -362.356)" fill="#fff" stroke="#fff" stroke-width="1"/>
      <path id="Path_223" data-name="Path 223" d="M124.715,36.422a14.726,14.726,0,0,0-9.583,3.1c-.225.187-.454.395-.684.621v-29.2A4.958,4.958,0,0,0,109.5,6H63.871a4.958,4.958,0,0,0-4.944,4.944V16l-.236-.236A7.986,7.986,0,0,0,47.4,27.06l8.228,8.228A7.989,7.989,0,0,0,52.211,48.6l4.68,4.68a7.984,7.984,0,0,0-4.68,13.573l3.159,3.16A7.984,7.984,0,0,0,50.69,83.59l8.238,8.238v4.3a4.949,4.949,0,0,0,4.944,4.944h36.506a1.9,1.9,0,0,0,1.9-1.9V80.914a10.317,10.317,0,0,1,4.107-8.214l7.3-5.476a1.921,1.921,0,0,0,.761-1.521V50.492c0-7.573,4.622-9.685,8.366-10.153V99.167a1.9,1.9,0,0,0,3.8,0V38.323A1.9,1.9,0,0,0,124.715,36.422ZM63.871,9.8H109.5a1.142,1.142,0,0,1,1.141,1.141v5.7H62.73v-5.7A1.142,1.142,0,0,1,63.871,9.8Zm-15.01,11.61A4.2,4.2,0,0,1,56,18.454l2.925,2.925V33.212l-8.841-8.841A4.156,4.156,0,0,1,48.861,21.413ZM54.9,40a4.2,4.2,0,0,1,5.916,0l8.6,8.6A4.183,4.183,0,0,1,63.5,54.52l-8.6-8.6A4.188,4.188,0,0,1,54.9,40Zm17.209,5.916-2.067-2.067a16.358,16.358,0,1,1,3.336,11.707,8,8,0,0,0-1.269-9.64ZM54.9,58.253a4.2,4.2,0,0,1,5.916,0l8.6,8.6A4.183,4.183,0,0,1,63.5,72.773l-8.6-8.6a4.188,4.188,0,0,1,0-5.916ZM53.379,74.985a4.2,4.2,0,0,1,5.916,0l8.6,8.6a4.183,4.183,0,0,1-5.916,5.916l-8.6-8.6a4.188,4.188,0,0,1,0-5.916Zm9.352,21.14v-1.9a7.981,7.981,0,0,0,10.162-8.358H98.476v11.4H63.871A1.142,1.142,0,0,1,62.73,96.125ZM104.1,69.658a14.137,14.137,0,0,0-5.628,11.256v1.148H71.547a7.981,7.981,0,0,0-.959-1.162l-3.159-3.159a7.984,7.984,0,0,0,4.68-13.573l-4.68-4.68a7.9,7.9,0,0,0,3.289-1.168A20.148,20.148,0,1,0,66.77,40.575S63,36.84,62.73,36.631V20.442h47.915v44.31Z" transform="translate(-45.059 -6)" fill="#fff" stroke="#fff" stroke-width="1"/>
      <path id="Path_224" data-name="Path 224" d="M225.064,155.972H228.3a2.759,2.759,0,0,1,0,5.514H223.5a1.082,1.082,0,0,1-1.043-1.264,1.9,1.9,0,1,0-3.8-.068l0,.2a4.85,4.85,0,0,0,4.85,4.938h1.371v1.141a1.9,1.9,0,1,0,3.8,0v-1.153a6.563,6.563,0,0,0-.38-13.108h-3.232a2.662,2.662,0,0,1,0-5.324h4.717a1.023,1.023,0,0,1,1.046,1.092,1.9,1.9,0,0,0,3.8.164,4.85,4.85,0,0,0-4.845-5.058h-1.1V141.9a1.9,1.9,0,0,0-3.8,0v1.146a6.463,6.463,0,1,0,.19,12.925Z" transform="translate(-185.526 -114.522)" fill="#fff" stroke="#fff" stroke-width="1"/>
    </g>
  </g>
</svg>
