<svg xmlns="http://www.w3.org/2000/svg" width="79.993" height="75.995" viewBox="0 0 79.993 75.995">
  <g id="calendar_8_" data-name="calendar (8)" transform="translate(0)">
    <path id="Path_66" data-name="Path 66" d="M369.476,342.27a2.625,2.625,0,0,0-3.711,0l-2.814,2.814-2.814-2.814a2.625,2.625,0,1,0-3.712,3.712l2.814,2.814-2.814,2.814a2.625,2.625,0,1,0,3.712,3.712l2.814-2.814,2.814,2.814a2.624,2.624,0,1,0,3.711-3.712l-2.814-2.814,2.814-2.814A2.624,2.624,0,0,0,369.476,342.27Z" transform="translate(-302.629 -292.718)" fill="#fff"/>
    <path id="Path_67" data-name="Path 67" d="M72.935,17.683H65.8V15.1a2.353,2.353,0,0,0-4.705,0v2.584H50.166V15.1a2.353,2.353,0,0,0-4.705,0v2.584H34.533V15.1a2.353,2.353,0,0,0-4.705,0v2.584H18.9V15.1a2.353,2.353,0,0,0-4.705,0v2.584H7.058A7.066,7.066,0,0,0,0,24.741V81.683a7.066,7.066,0,0,0,7.058,7.058H72.935a7.066,7.066,0,0,0,7.058-7.058V24.741A7.066,7.066,0,0,0,72.935,17.683ZM4.706,24.741a2.355,2.355,0,0,1,2.353-2.353h7.137v2.226a2.353,2.353,0,0,0,4.705,0V22.389H29.828v2.226a2.353,2.353,0,1,0,4.705,0V22.389H45.46v2.226a2.353,2.353,0,0,0,4.705,0V22.389H61.093v2.226a2.353,2.353,0,0,0,4.705,0V22.389h7.137a2.355,2.355,0,0,1,2.353,2.353v6.926H4.706Zm68.23,59.294H7.058a2.355,2.355,0,0,1-2.353-2.353V36.373H75.288V81.683A2.355,2.355,0,0,1,72.935,84.035Z" transform="translate(0 -12.746)" fill="#fff"/>
    <path id="Path_68" data-name="Path 68" d="M71.795,199.666a8.858,8.858,0,1,0,8.858,8.858A8.868,8.868,0,0,0,71.795,199.666Zm0,12.466a3.609,3.609,0,1,1,3.609-3.609A3.613,3.613,0,0,1,71.795,212.132Z" transform="translate(-51.925 -171.242)" fill="#fff"/>
    <path id="Path_69" data-name="Path 69" d="M213.154,199.666a8.858,8.858,0,1,0,8.858,8.858A8.868,8.868,0,0,0,213.154,199.666Zm0,12.466a3.609,3.609,0,1,1,3.609-3.609A3.613,3.613,0,0,1,213.154,212.132Z" transform="translate(-173.169 -171.242)" fill="#fff"/>
    <path id="Path_70" data-name="Path 70" d="M354.514,199.666a8.858,8.858,0,1,0,8.858,8.858A8.868,8.868,0,0,0,354.514,199.666Zm0,12.466a3.609,3.609,0,1,1,3.609-3.609A3.613,3.613,0,0,1,354.514,212.132Z" transform="translate(-294.417 -171.242)" fill="#fff"/>
    <path id="Path_71" data-name="Path 71" d="M71.795,333.46a8.858,8.858,0,1,0,8.858,8.858A8.868,8.868,0,0,0,71.795,333.46Zm0,12.467a3.609,3.609,0,1,1,3.609-3.609A3.613,3.613,0,0,1,71.795,345.927Z" transform="translate(-51.925 -286.124)" fill="#fff"/>
    <path id="Path_72" data-name="Path 72" d="M213.154,333.46a8.858,8.858,0,1,0,8.858,8.858A8.868,8.868,0,0,0,213.154,333.46Zm0,12.467a3.609,3.609,0,1,1,3.609-3.609A3.613,3.613,0,0,1,213.154,345.927Z" transform="translate(-173.169 -286.124)" fill="#fff"/>
  </g>
</svg>
